<svg xmlns="http://www.w3.org/2000/svg" viewBox="0 0 1234.44 515.17"><defs><style>.cls-1{fill:#b3b3b3;}.cls-2{fill:#666;}.cls-3{fill:#fff;}</style></defs><g id="Layer_2" data-name="Layer 2"><g id="web_page" data-name="web page"><rect class="cls-1" x="578.21" y="3" width="444.23" height="240.17" rx="26.71"/><path class="cls-2" d="M995.74,6a23.73,23.73,0,0,1,23.7,23.71V216.47a23.72,23.72,0,0,1-23.7,23.7H604.92a23.73,23.73,0,0,1-23.71-23.7V29.71A23.74,23.74,0,0,1,604.92,6H995.74m0-6H604.92a29.71,29.71,0,0,0-29.71,29.71V216.47a29.71,29.71,0,0,0,29.71,29.7H995.74a29.7,29.7,0,0,0,29.7-29.7V29.71A29.71,29.71,0,0,0,995.74,0Z"/><rect class="cls-1" x="3" y="60.15" width="240.17" height="444.23" rx="26.71"/><path class="cls-2" d="M216.47,63.15a23.73,23.73,0,0,1,23.7,23.71V477.68a23.72,23.72,0,0,1-23.7,23.7H29.71A23.73,23.73,0,0,1,6,477.68V86.86A23.74,23.74,0,0,1,29.71,63.15H216.47m0-6H29.71A29.71,29.71,0,0,0,0,86.86V477.68a29.71,29.71,0,0,0,29.71,29.7H216.47a29.7,29.7,0,0,0,29.7-29.7V86.86a29.71,29.71,0,0,0-29.7-29.71Z"/><rect class="cls-1" x="283.2" y="60.18" width="240.17" height="444.23" rx="26.71"/><path class="cls-2" d="M496.67,63.18a23.72,23.72,0,0,1,23.7,23.7V477.7a23.73,23.73,0,0,1-23.7,23.71H309.91A23.74,23.74,0,0,1,286.2,477.7V86.88a23.73,23.73,0,0,1,23.71-23.7H496.67m0-6H309.91a29.71,29.71,0,0,0-29.71,29.7V477.7a29.71,29.71,0,0,0,29.71,29.71H496.67a29.71,29.71,0,0,0,29.7-29.71V86.88a29.7,29.7,0,0,0-29.7-29.7Z"/><circle class="cls-3" cx="992.44" cy="123.55" r="17"/><rect class="cls-3" x="676.44" y="-59.45" width="211" height="363" transform="translate(659.9 903.99) rotate(-90)"/><path class="cls-1" d="M813.92,512.17a26.73,26.73,0,0,1-26.7-26.7V298.71A26.74,26.74,0,0,1,813.92,272h390.82a26.74,26.74,0,0,1,26.7,26.71V485.47a26.73,26.73,0,0,1-26.7,26.7Z"/><path class="cls-2" d="M1204.74,269v6a23.73,23.73,0,0,1,23.7,23.71V485.47a23.72,23.72,0,0,1-23.7,23.7H813.92a23.73,23.73,0,0,1-23.71-23.7V298.71A23.74,23.74,0,0,1,813.92,275h390.82v-6m0,0H813.92a29.71,29.71,0,0,0-29.71,29.71V485.47a29.71,29.71,0,0,0,29.71,29.7h390.82a29.7,29.7,0,0,0,29.7-29.7V298.71a29.71,29.71,0,0,0-29.7-29.71Z"/><circle class="cls-3" cx="817.21" cy="391.63" r="17"/><rect class="cls-3" x="922.21" y="211.63" width="211" height="363" transform="translate(1420.84 -634.59) rotate(90)"/><circle class="cls-3" cx="121.44" cy="479.55" r="17"/><rect class="cls-3" x="17.44" y="87.55" width="211" height="363"/><circle class="cls-3" cx="404.44" cy="94.55" r="17"/><rect class="cls-3" x="297.44" y="123.55" width="211" height="363" transform="translate(805.89 610.1) rotate(180)"/></g></g></svg>