<svg xmlns="http://www.w3.org/2000/svg" viewBox="0 0 804.66 733.41"><defs><style>.cls-1{fill:#b3b3b3;}.cls-2{fill:#666;}.cls-3{fill:#fff;}</style></defs><g id="Layer_2" data-name="Layer 2"><g id="web_page" data-name="web page"><rect class="cls-1" x="279.5" y="3" width="444.23" height="240.17" rx="26.71"/><path class="cls-2" d="M697,6a23.74,23.74,0,0,1,23.71,23.71V216.47A23.73,23.73,0,0,1,697,240.17H306.21a23.73,23.73,0,0,1-23.71-23.7V29.71A23.74,23.74,0,0,1,306.21,6H697m0-6H306.21A29.71,29.71,0,0,0,276.5,29.71V216.47a29.71,29.71,0,0,0,29.71,29.7H697a29.71,29.71,0,0,0,29.71-29.7V29.71A29.71,29.71,0,0,0,697,0Z"/><rect class="cls-1" x="281.28" y="286.15" width="240.17" height="444.23" rx="26.71"/><path class="cls-2" d="M494.75,289.15a23.74,23.74,0,0,1,23.71,23.71V703.68a23.73,23.73,0,0,1-23.71,23.7H308a23.73,23.73,0,0,1-23.71-23.7V312.86A23.74,23.74,0,0,1,308,289.15H494.75m0-6H308a29.71,29.71,0,0,0-29.71,29.71V703.68A29.71,29.71,0,0,0,308,733.38H494.75a29.71,29.71,0,0,0,29.71-29.7V312.86a29.71,29.71,0,0,0-29.71-29.71Z"/><rect class="cls-1" x="561.48" y="286.18" width="240.17" height="444.23" rx="26.71"/><path class="cls-2" d="M775,289.18a23.73,23.73,0,0,1,23.71,23.7V703.7A23.74,23.74,0,0,1,775,727.41H588.19a23.74,23.74,0,0,1-23.71-23.71V312.88a23.73,23.73,0,0,1,23.71-23.7H775m0-6H588.19a29.71,29.71,0,0,0-29.71,29.7V703.7a29.71,29.71,0,0,0,29.71,29.71H775a29.71,29.71,0,0,0,29.71-29.71V312.88A29.71,29.71,0,0,0,775,283.18Z"/><rect class="cls-1" x="3" y="3.03" width="240.17" height="444.23" rx="26.71"/><path class="cls-2" d="M216.47,6a23.73,23.73,0,0,1,23.7,23.71V420.55a23.73,23.73,0,0,1-23.7,23.71H29.71A23.74,23.74,0,0,1,6,420.55V29.74A23.74,23.74,0,0,1,29.71,6H216.47m0-6H29.71A29.71,29.71,0,0,0,0,29.74V420.55a29.71,29.71,0,0,0,29.71,29.71H216.47a29.71,29.71,0,0,0,29.7-29.71V29.74A29.71,29.71,0,0,0,216.47,0Z"/><circle class="cls-3" cx="122.73" cy="413.55" r="17"/><rect class="cls-3" x="18.73" y="21.55" width="211" height="363"/><circle class="cls-3" cx="693.73" cy="123.55" r="17"/><rect class="cls-3" x="377.73" y="-59.45" width="211" height="363" transform="translate(361.18 605.28) rotate(-90)"/><circle class="cls-3" cx="399.73" cy="705.55" r="17"/><rect class="cls-3" x="295.73" y="313.55" width="211" height="363"/><circle class="cls-3" cx="682.73" cy="320.55" r="17"/><rect class="cls-3" x="575.73" y="349.55" width="211" height="363" transform="translate(1362.46 1062.1) rotate(180)"/></g></g></svg>