<svg xmlns="http://www.w3.org/2000/svg" viewBox="0 0 990 620"><defs><style>.cls-1{fill:#b3b3b3;}.cls-2{fill:#666;}.cls-3{fill:#fff;}</style></defs><g id="Layer_2" data-name="Layer 2"><g id="web_page" data-name="web page"><rect class="cls-1" x="3" y="3" width="984" height="614" rx="26.71"/><path class="cls-2" d="M960.29,6A23.74,23.74,0,0,1,984,29.71V590.29A23.74,23.74,0,0,1,960.29,614H29.71A23.74,23.74,0,0,1,6,590.29V29.71A23.74,23.74,0,0,1,29.71,6H960.29m0-6H29.71A29.71,29.71,0,0,0,0,29.71V590.29A29.71,29.71,0,0,0,29.71,620H960.29A29.71,29.71,0,0,0,990,590.29V29.71A29.71,29.71,0,0,0,960.29,0Z"/><rect class="cls-3" x="48" y="13" width="879" height="592"/><circle class="cls-3" cx="955" cy="316" r="16"/><circle class="cls-3" cx="28" cy="316" r="4"/></g></g></svg>